<svg width="100" height="100" viewBox="0 0 100 100" fill="none" xmlns="http://www.w3.org/2000/svg">
  <rect width="100" height="100" rx="50" fill="#14F195" fill-opacity="0.1"/>
  <path d="M28.6957 62.6088C28.9957 62.3088 29.3957 62.1088 29.8957 62.1088H83.0957C83.8957 62.1088 84.2957 63.1088 83.6957 63.7088L71.3957 75.9088C71.0957 76.2088 70.6957 76.4088 70.1957 76.4088H16.9957C16.1957 76.4088 15.7957 75.4088 16.3957 74.8088L28.6957 62.6088Z" fill="#14F195"/>
  <path d="M28.6957 24.1088C29.0957 23.8088 29.4957 23.6088 29.8957 23.6088H83.0957C83.8957 23.6088 84.2957 24.6088 83.6957 25.2088L71.3957 37.4088C71.0957 37.7088 70.6957 37.9088 70.1957 37.9088H16.9957C16.1957 37.9088 15.7957 36.9088 16.3957 36.3088L28.6957 24.1088Z" fill="#14F195"/>
  <path d="M71.3957 43.2088C71.0957 42.9088 70.6957 42.7088 70.1957 42.7088H16.9957C16.1957 42.7088 15.7957 43.7088 16.3957 44.3088L28.6957 56.5088C28.9957 56.8088 29.3957 57.0088 29.8957 57.0088H83.0957C83.8957 57.0088 84.2957 56.0088 83.6957 55.4088L71.3957 43.2088Z" fill="#14F195"/>
</svg>
